<svg xmlns="http://www.w3.org/2000/svg" viewBox="0 0 600 300"><defs><linearGradient id="bg" x2="1" y2="1"><stop stop-color="hsl(190,55%,15%)"/><stop offset="1" stop-color="#0a1021"/></linearGradient><radialGradient id="orb"><stop stop-color="hsl(235,80%,75%)"/><stop offset="1" stop-color="hsl(190,65%,25%)"/></radialGradient><radialGradient id="glow"><stop stop-color="hsl(190,85%,65%)" stop-opacity=".3"/><stop offset="1" stop-color="hsl(190,85%,65%)" stop-opacity="0"/></radialGradient></defs><rect width="600" height="300" fill="url(#bg)"/><ellipse cx="430" cy="100" rx="230" ry="180" fill="url(#glow)"/><circle cx="529" cy="200" r="1" fill="hsl(235,80%,75%)" opacity="0.45"/><circle cx="273" cy="204" r="1" fill="hsl(235,80%,75%)" opacity="0.34"/><circle cx="142" cy="143" r="1.5" fill="hsl(235,80%,75%)" opacity="0.19"/><circle cx="25" cy="7" r="0.6" fill="hsl(235,80%,75%)" opacity="0.15"/><circle cx="195" cy="66" r="1.5" fill="hsl(235,80%,75%)" opacity="0.21"/><circle cx="348" cy="260" r="1.5" fill="hsl(235,80%,75%)" opacity="0.37"/><circle cx="366" cy="287" r="1" fill="hsl(235,80%,75%)" opacity="0.20"/><circle cx="43" cy="228" r="0.6" fill="hsl(235,80%,75%)" opacity="0.25"/><circle cx="463" cy="291" r="1" fill="hsl(235,80%,75%)" opacity="0.14"/><circle cx="282" cy="239" r="0.6" fill="hsl(235,80%,75%)" opacity="0.10"/><circle cx="2" cy="287" r="0.6" fill="hsl(235,80%,75%)" opacity="0.30"/><circle cx="43" cy="124" r="0.6" fill="hsl(235,80%,75%)" opacity="0.12"/><circle cx="354" cy="229" r="1.5" fill="hsl(235,80%,75%)" opacity="0.29"/><circle cx="266" cy="134" r="0.6" fill="hsl(235,80%,75%)" opacity="0.14"/><circle cx="193" cy="281" r="0.6" fill="hsl(235,80%,75%)" opacity="0.19"/><circle cx="48" cy="46" r="1.5" fill="hsl(235,80%,75%)" opacity="0.36"/><circle cx="313" cy="123" r="0.6" fill="hsl(235,80%,75%)" opacity="0.24"/><circle cx="91" cy="167" r="1.5" fill="hsl(235,80%,75%)" opacity="0.49"/><circle cx="64" cy="142" r="0.6" fill="hsl(235,80%,75%)" opacity="0.33"/><circle cx="256" cy="90" r="0.6" fill="hsl(235,80%,75%)" opacity="0.22"/><circle cx="566" cy="156" r="1" fill="hsl(235,80%,75%)" opacity="0.18"/><circle cx="498" cy="30" r="0.6" fill="hsl(235,80%,75%)" opacity="0.41"/><circle cx="23" cy="163" r="1" fill="hsl(235,80%,75%)" opacity="0.14"/><circle cx="524" cy="293" r="0.6" fill="hsl(235,80%,75%)" opacity="0.16"/><circle cx="365" cy="282" r="1" fill="hsl(235,80%,75%)" opacity="0.39"/><circle cx="280" cy="12" r="0.6" fill="hsl(235,80%,75%)" opacity="0.29"/><circle cx="435" cy="134" r="1.5" fill="hsl(235,80%,75%)" opacity="0.38"/><circle cx="582" cy="229" r="1" fill="hsl(235,80%,75%)" opacity="0.11"/><circle cx="139" cy="26" r="1" fill="hsl(235,80%,75%)" opacity="0.16"/><circle cx="1" cy="261" r="1.5" fill="hsl(235,80%,75%)" opacity="0.12"/><circle cx="196" cy="237" r="1.5" fill="hsl(235,80%,75%)" opacity="0.38"/><circle cx="131" cy="275" r="1.5" fill="hsl(235,80%,75%)" opacity="0.38"/><circle cx="178" cy="116" r="1.5" fill="hsl(235,80%,75%)" opacity="0.43"/><circle cx="266" cy="74" r="0.6" fill="hsl(235,80%,75%)" opacity="0.37"/><circle cx="492" cy="243" r="1.5" fill="hsl(235,80%,75%)" opacity="0.28"/><circle cx="575" cy="4" r="1" fill="hsl(235,80%,75%)" opacity="0.20"/><circle cx="142" cy="126" r="1.5" fill="hsl(235,80%,75%)" opacity="0.20"/><circle cx="52" cy="23" r="0.6" fill="hsl(235,80%,75%)" opacity="0.33"/><circle cx="277" cy="128" r="1" fill="hsl(235,80%,75%)" opacity="0.44"/><circle cx="7" cy="284" r="1.5" fill="hsl(235,80%,75%)" opacity="0.21"/><circle cx="160" cy="22" r="1.5" fill="hsl(235,80%,75%)" opacity="0.42"/><circle cx="428" cy="67" r="1.5" fill="hsl(235,80%,75%)" opacity="0.38"/><circle cx="517" cy="126" r="1.5" fill="hsl(235,80%,75%)" opacity="0.30"/><circle cx="41" cy="183" r="0.6" fill="hsl(235,80%,75%)" opacity="0.25"/><circle cx="262" cy="10" r="1" fill="hsl(235,80%,75%)" opacity="0.48"/><path d="M0 260 600 140M0 300 600 180M80 300 600 215M0 180 450 300M0 140 570 300" stroke="hsl(190,85%,65%)" opacity=".2"/><path d="M160 169v-74l25-12 20 12v74l-20 13z" fill="#151d38" stroke="hsl(190,85%,65%)" stroke-opacity=".7"/><path d="M185 83v99" stroke="hsl(235,80%,75%)" opacity=".6"/><path d="M205 140v-69l25-12 20 12v69l-20 13z" fill="#151d38" stroke="hsl(190,85%,65%)" stroke-opacity=".7"/><path d="M230 59v94" stroke="hsl(235,80%,75%)" opacity=".6"/><path d="M250 187v-94l25-12 20 12v94l-20 13z" fill="#151d38" stroke="hsl(190,85%,65%)" stroke-opacity=".7"/><path d="M275 81v119" stroke="hsl(235,80%,75%)" opacity=".6"/><path d="M295 169v-82l25-12 20 12v82l-20 13z" fill="#151d38" stroke="hsl(190,85%,65%)" stroke-opacity=".7"/><path d="M320 75v107" stroke="hsl(235,80%,75%)" opacity=".6"/><path d="M340 186v-55l25-12 20 12v55l-20 13z" fill="#151d38" stroke="hsl(190,85%,65%)" stroke-opacity=".7"/><path d="M365 119v80" stroke="hsl(235,80%,75%)" opacity=".6"/><path d="M385 146v-42l25-12 20 12v42l-20 13z" fill="#151d38" stroke="hsl(190,85%,65%)" stroke-opacity=".7"/><path d="M410 92v67" stroke="hsl(235,80%,75%)" opacity=".6"/><path d="M430 161v-57l25-12 20 12v57l-20 13z" fill="#151d38" stroke="hsl(190,85%,65%)" stroke-opacity=".7"/><path d="M455 92v82" stroke="hsl(235,80%,75%)" opacity=".6"/><path d="M475 149v-94l25-12 20 12v94l-20 13z" fill="#151d38" stroke="hsl(190,85%,65%)" stroke-opacity=".7"/><path d="M500 43v119" stroke="hsl(235,80%,75%)" opacity=".6"/><path d="M520 149v-88l25-12 20 12v88l-20 13z" fill="#151d38" stroke="hsl(190,85%,65%)" stroke-opacity=".7"/><path d="M545 49v113" stroke="hsl(235,80%,75%)" opacity=".6"/><path d="M565 138v-101l25-12 20 12v101l-20 13z" fill="#151d38" stroke="hsl(190,85%,65%)" stroke-opacity=".7"/><path d="M590 25v126" stroke="hsl(235,80%,75%)" opacity=".6"/><circle cx="430" cy="120" r="68" fill="#131a3388" stroke="hsl(235,80%,75%)" stroke-width="4"/><path d="m400 230 30-110 30 110M360 120h140m-70-70v140m-50-120 100 100m-100 0 100-100" stroke="hsl(190,85%,65%)" stroke-width="2" fill="none"/><path d="M0 295H600" stroke="hsl(235,80%,75%)" stroke-opacity=".3"/></svg>