<svg xmlns="http://www.w3.org/2000/svg" viewBox="0 0 600 300"><defs><linearGradient id="bg" x2="1" y2="1"><stop stop-color="hsl(337,55%,15%)"/><stop offset="1" stop-color="#0a1021"/></linearGradient><radialGradient id="orb"><stop stop-color="hsl(22,80%,75%)"/><stop offset="1" stop-color="hsl(337,65%,25%)"/></radialGradient><radialGradient id="glow"><stop stop-color="hsl(337,85%,65%)" stop-opacity=".3"/><stop offset="1" stop-color="hsl(337,85%,65%)" stop-opacity="0"/></radialGradient></defs><rect width="600" height="300" fill="url(#bg)"/><ellipse cx="430" cy="100" rx="230" ry="180" fill="url(#glow)"/><circle cx="389" cy="183" r="0.6" fill="hsl(22,80%,75%)" opacity="0.30"/><circle cx="137" cy="283" r="1.5" fill="hsl(22,80%,75%)" opacity="0.25"/><circle cx="269" cy="193" r="1" fill="hsl(22,80%,75%)" opacity="0.17"/><circle cx="190" cy="271" r="1" fill="hsl(22,80%,75%)" opacity="0.21"/><circle cx="493" cy="14" r="1.5" fill="hsl(22,80%,75%)" opacity="0.36"/><circle cx="255" cy="142" r="1" fill="hsl(22,80%,75%)" opacity="0.41"/><circle cx="206" cy="48" r="1.5" fill="hsl(22,80%,75%)" opacity="0.14"/><circle cx="211" cy="296" r="0.6" fill="hsl(22,80%,75%)" opacity="0.13"/><circle cx="376" cy="234" r="0.6" fill="hsl(22,80%,75%)" opacity="0.34"/><circle cx="325" cy="56" r="1" fill="hsl(22,80%,75%)" opacity="0.43"/><circle cx="14" cy="28" r="1.5" fill="hsl(22,80%,75%)" opacity="0.12"/><circle cx="556" cy="49" r="0.6" fill="hsl(22,80%,75%)" opacity="0.14"/><circle cx="293" cy="241" r="0.6" fill="hsl(22,80%,75%)" opacity="0.48"/><circle cx="260" cy="178" r="1.5" fill="hsl(22,80%,75%)" opacity="0.48"/><circle cx="160" cy="93" r="0.6" fill="hsl(22,80%,75%)" opacity="0.14"/><circle cx="589" cy="263" r="1" fill="hsl(22,80%,75%)" opacity="0.30"/><circle cx="490" cy="2" r="0.6" fill="hsl(22,80%,75%)" opacity="0.19"/><circle cx="115" cy="95" r="1" fill="hsl(22,80%,75%)" opacity="0.16"/><circle cx="419" cy="255" r="0.6" fill="hsl(22,80%,75%)" opacity="0.20"/><circle cx="207" cy="149" r="1.5" fill="hsl(22,80%,75%)" opacity="0.22"/><circle cx="407" cy="170" r="1" fill="hsl(22,80%,75%)" opacity="0.49"/><circle cx="76" cy="183" r="0.6" fill="hsl(22,80%,75%)" opacity="0.49"/><circle cx="513" cy="184" r="0.6" fill="hsl(22,80%,75%)" opacity="0.36"/><circle cx="500" cy="179" r="0.6" fill="hsl(22,80%,75%)" opacity="0.43"/><circle cx="163" cy="6" r="0.6" fill="hsl(22,80%,75%)" opacity="0.46"/><circle cx="379" cy="189" r="1.5" fill="hsl(22,80%,75%)" opacity="0.42"/><circle cx="185" cy="84" r="1.5" fill="hsl(22,80%,75%)" opacity="0.18"/><circle cx="562" cy="95" r="1.5" fill="hsl(22,80%,75%)" opacity="0.33"/><circle cx="374" cy="139" r="0.6" fill="hsl(22,80%,75%)" opacity="0.11"/><circle cx="37" cy="191" r="1" fill="hsl(22,80%,75%)" opacity="0.17"/><circle cx="397" cy="43" r="0.6" fill="hsl(22,80%,75%)" opacity="0.23"/><circle cx="432" cy="23" r="0.6" fill="hsl(22,80%,75%)" opacity="0.10"/><circle cx="178" cy="82" r="1" fill="hsl(22,80%,75%)" opacity="0.24"/><circle cx="288" cy="207" r="0.6" fill="hsl(22,80%,75%)" opacity="0.16"/><circle cx="394" cy="166" r="1" fill="hsl(22,80%,75%)" opacity="0.37"/><circle cx="173" cy="295" r="0.6" fill="hsl(22,80%,75%)" opacity="0.19"/><circle cx="228" cy="210" r="1" fill="hsl(22,80%,75%)" opacity="0.32"/><circle cx="408" cy="42" r="1.5" fill="hsl(22,80%,75%)" opacity="0.38"/><circle cx="594" cy="224" r="0.6" fill="hsl(22,80%,75%)" opacity="0.49"/><circle cx="529" cy="106" r="0.6" fill="hsl(22,80%,75%)" opacity="0.32"/><circle cx="157" cy="157" r="1" fill="hsl(22,80%,75%)" opacity="0.47"/><circle cx="558" cy="35" r="1" fill="hsl(22,80%,75%)" opacity="0.30"/><circle cx="424" cy="14" r="0.6" fill="hsl(22,80%,75%)" opacity="0.29"/><circle cx="300" cy="185" r="1.5" fill="hsl(22,80%,75%)" opacity="0.37"/><circle cx="484" cy="94" r="1.5" fill="hsl(22,80%,75%)" opacity="0.40"/><rect x="190" y="77.5" width="4" height="145" rx="2" fill="hsl(22,80%,75%)" opacity="0.4"/><rect x="199" y="117.5" width="4" height="65" rx="2" fill="hsl(22,80%,75%)" opacity="0.6000000000000001"/><rect x="208" y="126.0" width="4" height="48" rx="2" fill="hsl(22,80%,75%)" opacity="0.8"/><rect x="217" y="111.5" width="4" height="77" rx="2" fill="hsl(22,80%,75%)" opacity="0.4"/><rect x="226" y="142.5" width="4" height="15" rx="2" fill="hsl(22,80%,75%)" opacity="0.6000000000000001"/><rect x="235" y="133.0" width="4" height="34" rx="2" fill="hsl(22,80%,75%)" opacity="0.8"/><rect x="244" y="112.0" width="4" height="76" rx="2" fill="hsl(22,80%,75%)" opacity="0.4"/><rect x="253" y="131.5" width="4" height="37" rx="2" fill="hsl(22,80%,75%)" opacity="0.6000000000000001"/><rect x="262" y="86.0" width="4" height="128" rx="2" fill="hsl(22,80%,75%)" opacity="0.8"/><rect x="271" y="111.5" width="4" height="77" rx="2" fill="hsl(22,80%,75%)" opacity="0.4"/><rect x="280" y="85.0" width="4" height="130" rx="2" fill="hsl(22,80%,75%)" opacity="0.6000000000000001"/><rect x="289" y="80.5" width="4" height="139" rx="2" fill="hsl(22,80%,75%)" opacity="0.8"/><rect x="298" y="97.0" width="4" height="106" rx="2" fill="hsl(22,80%,75%)" opacity="0.4"/><rect x="307" y="102.0" width="4" height="96" rx="2" fill="hsl(22,80%,75%)" opacity="0.6000000000000001"/><rect x="316" y="139.5" width="4" height="21" rx="2" fill="hsl(22,80%,75%)" opacity="0.8"/><rect x="325" y="83.0" width="4" height="134" rx="2" fill="hsl(22,80%,75%)" opacity="0.4"/><rect x="334" y="128.0" width="4" height="44" rx="2" fill="hsl(22,80%,75%)" opacity="0.6000000000000001"/><rect x="343" y="109.0" width="4" height="82" rx="2" fill="hsl(22,80%,75%)" opacity="0.8"/><rect x="352" y="92.0" width="4" height="116" rx="2" fill="hsl(22,80%,75%)" opacity="0.4"/><rect x="361" y="89.5" width="4" height="121" rx="2" fill="hsl(22,80%,75%)" opacity="0.6000000000000001"/><rect x="370" y="111.0" width="4" height="78" rx="2" fill="hsl(22,80%,75%)" opacity="0.8"/><rect x="379" y="100.0" width="4" height="100" rx="2" fill="hsl(22,80%,75%)" opacity="0.4"/><rect x="388" y="106.5" width="4" height="87" rx="2" fill="hsl(22,80%,75%)" opacity="0.6000000000000001"/><rect x="397" y="129.5" width="4" height="41" rx="2" fill="hsl(22,80%,75%)" opacity="0.8"/><rect x="406" y="79.0" width="4" height="142" rx="2" fill="hsl(22,80%,75%)" opacity="0.4"/><rect x="415" y="136.0" width="4" height="28" rx="2" fill="hsl(22,80%,75%)" opacity="0.6000000000000001"/><rect x="424" y="113.5" width="4" height="73" rx="2" fill="hsl(22,80%,75%)" opacity="0.8"/><rect x="433" y="123.0" width="4" height="54" rx="2" fill="hsl(22,80%,75%)" opacity="0.4"/><rect x="442" y="112.0" width="4" height="76" rx="2" fill="hsl(22,80%,75%)" opacity="0.6000000000000001"/><rect x="451" y="106.5" width="4" height="87" rx="2" fill="hsl(22,80%,75%)" opacity="0.8"/><rect x="460" y="117.0" width="4" height="66" rx="2" fill="hsl(22,80%,75%)" opacity="0.4"/><rect x="469" y="71.0" width="4" height="158" rx="2" fill="hsl(22,80%,75%)" opacity="0.6000000000000001"/><rect x="478" y="91.5" width="4" height="117" rx="2" fill="hsl(22,80%,75%)" opacity="0.8"/><rect x="487" y="112.5" width="4" height="75" rx="2" fill="hsl(22,80%,75%)" opacity="0.4"/><rect x="496" y="110.0" width="4" height="80" rx="2" fill="hsl(22,80%,75%)" opacity="0.6000000000000001"/><rect x="505" y="123.0" width="4" height="54" rx="2" fill="hsl(22,80%,75%)" opacity="0.8"/><rect x="514" y="85.5" width="4" height="129" rx="2" fill="hsl(22,80%,75%)" opacity="0.4"/><rect x="523" y="94.0" width="4" height="112" rx="2" fill="hsl(22,80%,75%)" opacity="0.6000000000000001"/><rect x="532" y="136.5" width="4" height="27" rx="2" fill="hsl(22,80%,75%)" opacity="0.8"/><rect x="541" y="103.5" width="4" height="93" rx="2" fill="hsl(22,80%,75%)" opacity="0.4"/><rect x="550" y="94.5" width="4" height="111" rx="2" fill="hsl(22,80%,75%)" opacity="0.6000000000000001"/><rect x="559" y="85.0" width="4" height="130" rx="2" fill="hsl(22,80%,75%)" opacity="0.8"/><path d="M160 150h420" stroke="hsl(337,85%,65%)" opacity=".7"/><path d="M0 295H600" stroke="hsl(22,80%,75%)" stroke-opacity=".3"/></svg>