<svg xmlns="http://www.w3.org/2000/svg" viewBox="0 0 600 300"><defs><linearGradient id="bg" x2="1" y2="1"><stop stop-color="hsl(300,55%,15%)"/><stop offset="1" stop-color="#0a1021"/></linearGradient><radialGradient id="orb"><stop stop-color="hsl(345,80%,75%)"/><stop offset="1" stop-color="hsl(300,65%,25%)"/></radialGradient><radialGradient id="glow"><stop stop-color="hsl(300,85%,65%)" stop-opacity=".3"/><stop offset="1" stop-color="hsl(300,85%,65%)" stop-opacity="0"/></radialGradient></defs><rect width="600" height="300" fill="url(#bg)"/><ellipse cx="430" cy="100" rx="230" ry="180" fill="url(#glow)"/><circle cx="550" cy="158" r="0.6" fill="hsl(345,80%,75%)" opacity="0.49"/><circle cx="198" cy="222" r="1" fill="hsl(345,80%,75%)" opacity="0.27"/><circle cx="228" cy="55" r="0.6" fill="hsl(345,80%,75%)" opacity="0.50"/><circle cx="173" cy="93" r="0.6" fill="hsl(345,80%,75%)" opacity="0.35"/><circle cx="147" cy="102" r="1" fill="hsl(345,80%,75%)" opacity="0.27"/><circle cx="169" cy="21" r="1.5" fill="hsl(345,80%,75%)" opacity="0.11"/><circle cx="229" cy="91" r="0.6" fill="hsl(345,80%,75%)" opacity="0.29"/><circle cx="93" cy="202" r="1.5" fill="hsl(345,80%,75%)" opacity="0.28"/><circle cx="21" cy="96" r="1" fill="hsl(345,80%,75%)" opacity="0.29"/><circle cx="198" cy="130" r="0.6" fill="hsl(345,80%,75%)" opacity="0.39"/><circle cx="87" cy="49" r="0.6" fill="hsl(345,80%,75%)" opacity="0.27"/><circle cx="350" cy="264" r="1.5" fill="hsl(345,80%,75%)" opacity="0.23"/><circle cx="147" cy="182" r="1" fill="hsl(345,80%,75%)" opacity="0.14"/><circle cx="333" cy="247" r="1" fill="hsl(345,80%,75%)" opacity="0.11"/><circle cx="452" cy="81" r="0.6" fill="hsl(345,80%,75%)" opacity="0.20"/><circle cx="262" cy="79" r="1" fill="hsl(345,80%,75%)" opacity="0.39"/><circle cx="212" cy="46" r="1.5" fill="hsl(345,80%,75%)" opacity="0.33"/><circle cx="239" cy="165" r="1" fill="hsl(345,80%,75%)" opacity="0.42"/><circle cx="407" cy="211" r="1" fill="hsl(345,80%,75%)" opacity="0.49"/><circle cx="380" cy="16" r="1.5" fill="hsl(345,80%,75%)" opacity="0.11"/><circle cx="223" cy="139" r="1.5" fill="hsl(345,80%,75%)" opacity="0.34"/><circle cx="445" cy="156" r="1.5" fill="hsl(345,80%,75%)" opacity="0.44"/><circle cx="158" cy="44" r="1" fill="hsl(345,80%,75%)" opacity="0.14"/><circle cx="420" cy="13" r="1.5" fill="hsl(345,80%,75%)" opacity="0.34"/><circle cx="464" cy="20" r="0.6" fill="hsl(345,80%,75%)" opacity="0.27"/><circle cx="435" cy="6" r="0.6" fill="hsl(345,80%,75%)" opacity="0.25"/><circle cx="71" cy="107" r="0.6" fill="hsl(345,80%,75%)" opacity="0.29"/><circle cx="170" cy="127" r="1" fill="hsl(345,80%,75%)" opacity="0.18"/><circle cx="408" cy="46" r="0.6" fill="hsl(345,80%,75%)" opacity="0.40"/><circle cx="576" cy="1" r="1.5" fill="hsl(345,80%,75%)" opacity="0.47"/><circle cx="107" cy="199" r="1" fill="hsl(345,80%,75%)" opacity="0.34"/><circle cx="263" cy="253" r="0.6" fill="hsl(345,80%,75%)" opacity="0.34"/><circle cx="154" cy="126" r="0.6" fill="hsl(345,80%,75%)" opacity="0.25"/><circle cx="97" cy="99" r="1" fill="hsl(345,80%,75%)" opacity="0.26"/><circle cx="544" cy="211" r="0.6" fill="hsl(345,80%,75%)" opacity="0.26"/><circle cx="25" cy="151" r="1.5" fill="hsl(345,80%,75%)" opacity="0.43"/><circle cx="349" cy="78" r="1" fill="hsl(345,80%,75%)" opacity="0.10"/><circle cx="458" cy="297" r="1" fill="hsl(345,80%,75%)" opacity="0.20"/><circle cx="127" cy="281" r="0.6" fill="hsl(345,80%,75%)" opacity="0.28"/><circle cx="450" cy="44" r="0.6" fill="hsl(345,80%,75%)" opacity="0.50"/><circle cx="371" cy="145" r="1" fill="hsl(345,80%,75%)" opacity="0.45"/><circle cx="368" cy="199" r="0.6" fill="hsl(345,80%,75%)" opacity="0.29"/><circle cx="584" cy="53" r="1.5" fill="hsl(345,80%,75%)" opacity="0.50"/><circle cx="415" cy="128" r="1" fill="hsl(345,80%,75%)" opacity="0.45"/><circle cx="427" cy="9" r="1" fill="hsl(345,80%,75%)" opacity="0.30"/><ellipse cx="430" cy="95" rx="68" ry="68" fill="url(#orb)"/><ellipse cx="430" cy="95" rx="115" ry="23" transform="rotate(-23 430 95)" fill="none" stroke="hsl(345,80%,75%)" stroke-width="3" opacity=".55"/><path d="M100 300 415 145 325 300M0 260 410 140M110 285 410 140M220 300 410 140" fill="#171c3c" stroke="hsl(300,85%,65%)" stroke-width="3" opacity=".7"/><path d="m280 215 35-28h85l40 22 5 35H275z" fill="hsl(300,85%,65%)" stroke="hsl(345,80%,75%)" stroke-width="3"/><path d="m327 191-14 21h88l-15-21z" fill="#101730"/><circle cx="303" cy="241" r="14" fill="#0a0e19" stroke="hsl(345,80%,75%)" stroke-width="3"/><circle cx="420" cy="241" r="14" fill="#0a0e19" stroke="hsl(345,80%,75%)" stroke-width="3"/><path d="M0 295H600" stroke="hsl(345,80%,75%)" stroke-opacity=".3"/></svg>