<svg xmlns="http://www.w3.org/2000/svg" viewBox="0 0 600 300"><defs><linearGradient id="bg" x2="1" y2="1"><stop stop-color="hsl(333,55%,15%)"/><stop offset="1" stop-color="#0a1021"/></linearGradient><radialGradient id="orb"><stop stop-color="hsl(18,80%,75%)"/><stop offset="1" stop-color="hsl(333,65%,25%)"/></radialGradient><radialGradient id="glow"><stop stop-color="hsl(333,85%,65%)" stop-opacity=".3"/><stop offset="1" stop-color="hsl(333,85%,65%)" stop-opacity="0"/></radialGradient></defs><rect width="600" height="300" fill="url(#bg)"/><ellipse cx="430" cy="100" rx="230" ry="180" fill="url(#glow)"/><circle cx="491" cy="206" r="1" fill="hsl(18,80%,75%)" opacity="0.40"/><circle cx="539" cy="33" r="0.6" fill="hsl(18,80%,75%)" opacity="0.50"/><circle cx="422" cy="36" r="1.5" fill="hsl(18,80%,75%)" opacity="0.24"/><circle cx="418" cy="126" r="0.6" fill="hsl(18,80%,75%)" opacity="0.45"/><circle cx="569" cy="197" r="1.5" fill="hsl(18,80%,75%)" opacity="0.50"/><circle cx="435" cy="277" r="1" fill="hsl(18,80%,75%)" opacity="0.36"/><circle cx="115" cy="10" r="1" fill="hsl(18,80%,75%)" opacity="0.24"/><circle cx="78" cy="119" r="1" fill="hsl(18,80%,75%)" opacity="0.24"/><circle cx="124" cy="236" r="0.6" fill="hsl(18,80%,75%)" opacity="0.42"/><circle cx="116" cy="237" r="0.6" fill="hsl(18,80%,75%)" opacity="0.13"/><circle cx="517" cy="16" r="1.5" fill="hsl(18,80%,75%)" opacity="0.24"/><circle cx="22" cy="36" r="1.5" fill="hsl(18,80%,75%)" opacity="0.26"/><circle cx="115" cy="38" r="1" fill="hsl(18,80%,75%)" opacity="0.31"/><circle cx="142" cy="186" r="1.5" fill="hsl(18,80%,75%)" opacity="0.10"/><circle cx="56" cy="112" r="0.6" fill="hsl(18,80%,75%)" opacity="0.10"/><circle cx="521" cy="256" r="0.6" fill="hsl(18,80%,75%)" opacity="0.46"/><circle cx="591" cy="197" r="1.5" fill="hsl(18,80%,75%)" opacity="0.41"/><circle cx="212" cy="128" r="1" fill="hsl(18,80%,75%)" opacity="0.43"/><circle cx="137" cy="198" r="1" fill="hsl(18,80%,75%)" opacity="0.20"/><circle cx="104" cy="40" r="1" fill="hsl(18,80%,75%)" opacity="0.26"/><circle cx="287" cy="86" r="0.6" fill="hsl(18,80%,75%)" opacity="0.49"/><circle cx="410" cy="205" r="0.6" fill="hsl(18,80%,75%)" opacity="0.20"/><circle cx="521" cy="157" r="0.6" fill="hsl(18,80%,75%)" opacity="0.19"/><circle cx="131" cy="262" r="0.6" fill="hsl(18,80%,75%)" opacity="0.35"/><circle cx="125" cy="69" r="1.5" fill="hsl(18,80%,75%)" opacity="0.39"/><circle cx="156" cy="276" r="1" fill="hsl(18,80%,75%)" opacity="0.19"/><circle cx="177" cy="181" r="1.5" fill="hsl(18,80%,75%)" opacity="0.29"/><circle cx="348" cy="11" r="1" fill="hsl(18,80%,75%)" opacity="0.27"/><circle cx="360" cy="276" r="1.5" fill="hsl(18,80%,75%)" opacity="0.18"/><circle cx="281" cy="66" r="0.6" fill="hsl(18,80%,75%)" opacity="0.44"/><circle cx="424" cy="168" r="1" fill="hsl(18,80%,75%)" opacity="0.48"/><circle cx="206" cy="80" r="0.6" fill="hsl(18,80%,75%)" opacity="0.12"/><circle cx="549" cy="11" r="1.5" fill="hsl(18,80%,75%)" opacity="0.18"/><circle cx="460" cy="128" r="0.6" fill="hsl(18,80%,75%)" opacity="0.15"/><circle cx="412" cy="219" r="1.5" fill="hsl(18,80%,75%)" opacity="0.33"/><circle cx="79" cy="212" r="0.6" fill="hsl(18,80%,75%)" opacity="0.39"/><circle cx="174" cy="142" r="0.6" fill="hsl(18,80%,75%)" opacity="0.49"/><circle cx="75" cy="31" r="0.6" fill="hsl(18,80%,75%)" opacity="0.28"/><circle cx="332" cy="66" r="1.5" fill="hsl(18,80%,75%)" opacity="0.43"/><circle cx="189" cy="18" r="1" fill="hsl(18,80%,75%)" opacity="0.18"/><circle cx="249" cy="28" r="1" fill="hsl(18,80%,75%)" opacity="0.43"/><circle cx="513" cy="41" r="1.5" fill="hsl(18,80%,75%)" opacity="0.21"/><circle cx="134" cy="123" r="0.6" fill="hsl(18,80%,75%)" opacity="0.45"/><circle cx="227" cy="78" r="0.6" fill="hsl(18,80%,75%)" opacity="0.43"/><circle cx="321" cy="6" r="0.6" fill="hsl(18,80%,75%)" opacity="0.38"/><circle cx="455" cy="82" r="47" fill="hsl(333,85%,65%)" opacity=".15"/><circle cx="455" cy="82" r="35" fill="hsl(18,80%,75%)" opacity=".5"/><polygon points="0,300 0,163 60,136 120,159 180,167 240,159 300,155 360,169 420,153 480,149 540,143 600,126 600,300" fill="hsl(333,45%,28%)"/><polygon points="0,300 0,190 60,184 120,188 180,159 240,203 300,197 360,172 420,210 480,192 540,198 600,158 600,300" fill="hsl(333,37%,22%)"/><polygon points="0,300 0,194 60,222 120,227 180,218 240,209 300,225 360,217 420,237 480,232 540,219 600,192 600,300" fill="hsl(333,29%,16%)"/><path d="M350 200v-80l25-25 25 25v80m-45-80h40m-20-25V70m-20 105h40" fill="#11182d" stroke="hsl(18,80%,75%)" stroke-width="2"/><path d="M0 295H600" stroke="hsl(18,80%,75%)" stroke-opacity=".3"/></svg>